<?xml version="1.0" encoding="utf-8"?>
<!-- Generator: Adobe Illustrator 25.4.1, SVG Export Plug-In . SVG Version: 6.00 Build 0)  -->
<svg version="1.1" id="Livello_1" xmlns="http://www.w3.org/2000/svg" xmlns:xlink="http://www.w3.org/1999/xlink" x="0px" y="0px"
	 viewBox="0 0 128 128" style="enable-background:new 0 0 128 128;" xml:space="preserve">
<style type="text/css">
	.st0{fill:#FFFFFF;}
</style>
<rect x="-178" y="-5.2" width="128" height="128"/>
<g>
	<g>
		<path class="st0" d="M123.8,128H92.6c-1.1,0-2.2-0.4-2.9-1.2L64,101.1l-25.7,25.7c-0.8,0.8-1.8,1.2-2.9,1.2H4.2
			c-2.3,0-4.2-1.9-4.2-4.2c0-1.1,0.4-2.2,1.2-2.9L113.8,8.3H94.1L35.4,67c-1.6,1.6-4.3,1.6-5.9,0c-0.8-0.8-1.2-1.8-1.2-2.9V4.2
			c0-2.3,1.9-4.2,4.2-4.2h22.8c2.3,0,4.2,1.9,4.2,4.2v27L89.4,1.2c0.8-0.8,1.9-1.2,3-1.2h31.5c2.3,0,4.2,1.9,4.2,4.2
			c0,1.1-0.4,2.2-1.2,2.9L14.2,119.7h19.4l42.9-42.9c1.6-1.6,4.2-1.6,5.9,0l9.1,8.8l0,0l35.3,35.3c1.6,1.6,1.6,4.3,0,5.9
			C126,127.6,124.9,128,123.8,128L123.8,128z M94.4,119.7h19.4L85.6,91.5l-6.1-6l-9.6,9.6L94.4,119.7z M36.6,8.3V54l14.5-14.5V8.3
			H36.6z"/>
	</g>
	<g>
		<path class="st0" d="M123.8,92.7c-1.1,0-2.2-0.4-3-1.2L96.3,67c-1.6-1.6-1.6-4.3,0-6l2.6-2.6l0,0l21.9-21.9c1.6-1.6,4.3-1.6,6,0
			c0.8,0.8,1.2,1.9,1.2,3v49C128,90.8,126.1,92.7,123.8,92.7C123.8,92.7,123.8,92.7,123.8,92.7z M105.3,64l14.3,14.3V49.7L105.3,64z
			"/>
	</g>
</g>
</svg>
